# xmcd
#
# Track frame offsets: 
#        183
#        14030
#        28600
#        44623
#        63343
#        78273
#        91553
#        109478
#        126123
#        139300
#
# Disc length: 2012 seconds
#
# Revision: 1
# Processed by: cddbd v1.5.1PL0 Copyright (c) Steve Scherf et al.
# Submitted via: ExactAudioCopy v0.95a5
#
DISCID=8507da0a
DTITLE=Various Artist - Gulf Coast Blues, Volume One
DYEAR=1990
DGENRE=Blues
TTITLE0=Carol Fran and Clarence Hollimon - Everyday is Not the Same
TTITLE1=Carol Fran and Clarence Hollimon - Emmitt Lee
TTITLE2=Joe ''Guitar'' Hughes - Miss Too Fine
TTITLE3=Joe ''Guitar'' Hughes - Apron Strings
TTITLE4=Grady Gaines - Lonesome Saxophone, part 1
TTITLE5=Grady Gaines - Lonesome Saxophone, part 2
TTITLE6=Teddy Reynolds - Young Girl's Got a Lot of Patience
TTITLE7=Teddy Reynolds - I Work Five Days a Week
TTITLE8=Teddy Reynolds - I Don't Want Your Money
TTITLE9=Teddy Reynolds - Texas Son
EXTD=YEAR: 1990
EXTT0=
EXTT1=
EXTT2=
EXTT3=
EXTT4=
EXTT5=
EXTT6=
EXTT7=
EXTT8=
EXTT9=
PLAYORDER=
